HIERARCHY
ROOT Hips
{
	OFFSET 0.00000 0.00000 0.00000
	CHANNELS 6 Xposition Yposition Zposition Zrotation Yrotation Xrotation 
	JOINT LHipJoint
	{
		OFFSET 0 0 0
		CHANNELS 3 Zrotation Yrotation Xrotation
		JOINT LeftHip
		{
			OFFSET 1.62964 -1.40469 0.78906
			CHANNELS 3 Zrotation Yrotation Xrotation
			JOINT LeftKnee
			{
				OFFSET 2.29640 -6.30932 0.00000
				CHANNELS 3 Zrotation Yrotation Xrotation
				JOINT LeftAnkle
				{
					OFFSET 2.29451 -6.30412 0.00000
					CHANNELS 3 Zrotation Yrotation Xrotation
					JOINT LeftToe
					{
						OFFSET 0.03611 -0.09921 1.56387
						CHANNELS 3 Zrotation Yrotation Xrotation
						End Site
						{
							OFFSET 0.00000 -0.00000 0.80291
						}
					}
				}
			}
		}
	}
	JOINT RHipJoint
	{
		OFFSET 0 0 0
		CHANNELS 3 Zrotation Yrotation Xrotation
		JOINT RightHip
		{
			OFFSET -1.73712 -1.40469 0.78906
			CHANNELS 3 Zrotation Yrotation Xrotation
			JOINT RightKnee
			{
				OFFSET -2.28137 -6.26801 0.00000
				CHANNELS 3 Zrotation Yrotation Xrotation
				JOINT RightAnkle
				{
					OFFSET -2.28681 -6.28298 0.00000
					CHANNELS 3 Zrotation Yrotation Xrotation
					JOINT RightToe
					{
						OFFSET -0.15927 -0.43759 1.61103
						CHANNELS 3 Zrotation Yrotation Xrotation
						End Site
						{
							OFFSET -0.00000 -0.00000 0.84630
						}
					}
				}
			}
		}
	}
	JOINT lowerback
	{
		OFFSET 0 0 0
		CHANNELS 3 Zrotation Yrotation Xrotation
		JOINT Chest
		{
			OFFSET -0.04227 2.04338 -0.00225
			CHANNELS 3 Zrotation Yrotation Xrotation
			JOINT Chest2
			{
				OFFSET -0.02148 2.04482 -0.04273
				CHANNELS 3 Zrotation Yrotation Xrotation
				JOINT lowerneck
				{
					OFFSET 0 0 0
					CHANNELS 3 Zrotation Yrotation Xrotation
					JOINT Neck
					{
						OFFSET 0.09180 1.44629 0.19359
						CHANNELS 3 Zrotation Yrotation Xrotation
						JOINT Head
						{
							OFFSET 0.00887 1.40645 0.14750
							CHANNELS 3 Zrotation Yrotation Xrotation
							End Site
							{
								OFFSET -0.00669 1.50671 0.03707
							}
						}
					}
				}
				JOINT LeftCollar
				{
					OFFSET 0 0 0
					CHANNELS 3 Zrotation Yrotation Xrotation
					JOINT LeftShoulder
					{
						OFFSET 2.17674 1.86763 -0.06520
CHANNELS 3 Zrotation Xrotation Yrotation
						JOINT LeftElbow
						{
OFFSET 0 -4.657760 0.000000
CHANNELS 3 Zrotation Xrotation Yrotation
							JOINT LeftWrist
							{
OFFSET 0 -3.555390 0.000000
CHANNELS 3 Zrotation Xrotation Yrotation
								JOINT lhand
								{
									OFFSET 0 0 0
CHANNELS 3 Zrotation Xrotation Yrotation
									JOINT LFingers
									{
OFFSET 0 -0.707260 0.000000
CHANNELS 3 Zrotation Xrotation Yrotation
										End Site
										{
OFFSET 0 -0.570220 0.000000
										}
									}
								}
								JOINT LThumb
								{
OFFSET 0 0.000000 0.000000
CHANNELS 3 Zrotation Xrotation Yrotation
									End Site
									{
OFFSET 0 -0.578920 0.578920
									}
								}
							}
						}
					}
				}
				JOINT RightCollar
				{
					OFFSET 0 0 0
					CHANNELS 3 Zrotation Yrotation Xrotation
					JOINT RightShoulder
					{
						OFFSET -2.80694 1.55459 -0.32496
CHANNELS 3 Zrotation Xrotation Yrotation
						JOINT RightElbow
						{
OFFSET 0 -4.719250 -0.000000
CHANNELS 3 Zrotation Xrotation Yrotation
							JOINT RightWrist
							{
OFFSET 0 -3.569900 0.000000
CHANNELS 3 Zrotation Xrotation Yrotation
								JOINT rhand
								{
									OFFSET 0 0 0
CHANNELS 3 Zrotation Xrotation Yrotation
									JOINT RFingers
									{
OFFSET 0 -0.507760 0.000000
CHANNELS 3 Zrotation Xrotation Yrotation
										End Site
										{
OFFSET 0 -0.409370 0.000000
										}
									}
								}
								JOINT RThumb
								{
OFFSET 0 0.000000 0.000000
CHANNELS 3 Zrotation Xrotation Yrotation
									End Site
									{
OFFSET 0 -0.415620 0.415620
									}
								}
							}
						}
					}
				}
			}
		}
	}
}
MOTION
Frames: 4
Frame Time: 0.008333333333333333
8.788200 16.343200 31.483400 178.752000 2.319500 -157.041000 0.000000 0.000000 0.000000 -19.415200 -15.856400 -15.641900 0.129000 2.315100 6.377400 0.226800 1.688400 -9.778700 5.289500 -13.702600 -42.058800 0.000000 0.000000 0.000000 16.100200 15.746700 -16.686900 -0.235100 -3.120600 8.614700 -2.123800 1.166800 -27.255500 -0.957000 6.229500 -17.451700 -6.358300 -1.810000 -27.314900 -0.490400 0.278700 -1.740600 3.272600 0.017800 13.310000 -2.376300 -4.190300 -0.574100 6.275600 -4.752100 -9.549100 2.544700 -2.279700 -2.737400 0.000000 0.000000 0.000000 3.968500 -2.619200 -20.435300 10.939900 -18.196100 1.757100 22.616400 6.706300 12.278400 0.000000 0.000000 0.000000 -7.125000 0.000000 0.000000 -3.202800 16.726700 -2.148900 0.000000 0.000000 0.000000 1.702700 1.537000 10.074900 -16.137300 -25.706500 -3.705300 -42.151900 44.406900 67.731100 0.000000 0.000000 0.000000 7.125000 0.000000 -0.000000 -171.729700 13.220300 6.226300
8.792958 16.331848 31.485403 179.315439 2.072755 -157.264706 0.000000 0.000000 0.000000 -18.757103 -15.546133 -15.513019 0.130085 2.324950 6.404612 0.226299 1.511689 -9.670854 5.366295 -13.784737 -42.381922 0.000000 0.000000 0.000000 16.940517 15.640773 -16.352593 -0.234683 -3.117762 8.606770 -2.134651 1.247434 -27.304081 -0.924529 6.125493 -17.149112 -5.798868 -1.692638 -27.068406 -0.306009 0.187882 -1.664557 3.124353 -0.009913 13.272437 -2.472293 -4.212420 -0.527522 6.304231 -4.769045 -9.695344 2.577505 -2.283957 -2.791991 0.000000 0.000000 0.000000 3.913742 -2.601921 -20.046068 10.658180 -17.762210 1.670372 22.749789 6.882176 12.416130 0.000000 0.000000 0.000000 -7.125000 0.000000 0.000000 -3.116656 16.565598 -2.101738 0.000000 0.000000 0.000000 1.619728 1.512710 10.139758 -15.989721 -25.506667 -3.641611 -12.079195 14.664997 55.186442 0.000000 0.000000 0.000000 7.125000 0.000000 0.000000 -41.434041 -6.298815 -138.250244
8.802536 16.327123 31.478771 179.825992 1.424877 -157.778284 0.000000 0.000000 0.000000 -18.138504 -15.233991 -15.036961 0.130434 2.327837 6.412544 0.231422 1.016922 -9.521702 5.375676 -13.794774 -42.421398 0.000000 0.000000 0.000000 17.907762 15.551918 -15.346092 -0.214650 -2.981168 8.226493 -2.129503 0.703607 -27.429046 -0.908259 6.073034 -16.996548 -5.325593 -1.697450 -26.554400 -0.121083 -0.062801 -1.517418 2.963989 -0.121039 13.186072 -2.452338 -4.271762 -0.537915 6.379657 -4.832717 -9.758576 2.601540 -2.315729 -2.807151 0.000000 0.000000 0.000000 3.923921 -2.575404 -19.597322 10.380812 -17.332605 1.586858 22.637423 7.156194 12.502579 0.000000 0.000000 0.000000 -7.125000 0.000000 0.000000 -3.198478 16.484161 -2.162893 0.000000 0.000000 0.000000 1.636639 1.573506 10.139546 -15.892551 -25.374649 -3.599812 -6.818751 9.064231 53.459011 0.000000 0.000000 0.000000 7.125000 0.000000 0.000000 -15.368858 -9.308914 -166.826609
8.799086 16.318690 31.489568 180.164169 1.377960 -157.560781 0.000000 0.000000 0.000000 -17.694924 -15.136467 -15.424802 0.135038 2.368029 6.523861 0.234756 0.900566 -9.525000 5.375422 -13.794523 -42.420392 0.000000 0.000000 0.000000 18.281168 15.487696 -15.720644 -0.221034 -3.024565 8.347399 -2.121715 0.953356 -27.307170 -0.911769 6.084475 -17.029804 -4.864868 -1.569274 -26.613541 -0.089999 -0.028364 -1.594881 2.747695 -0.071710 13.122849 -2.430025 -4.283472 -0.535298 6.433561 -4.846165 -9.720646 2.614788 -2.324899 -2.793570 0.000000 0.000000 0.000000 3.974281 -2.569798 -19.212131 10.113896 -16.917115 1.508271 22.463326 7.360917 12.574201 0.000000 0.000000 0.000000 -7.125000 0.000000 0.000000 -3.322371 16.424811 -2.251243 0.000000 0.000000 0.000000 1.718491 1.606959 10.006905 -15.773038 -25.211729 -3.548797 -7.974380 9.765175 54.088519 0.000000 0.000000 0.000000 7.125000 0.000000 0.000000 -14.925722 -8.473931 -166.977270
